<?xml version="1.0" encoding="utf-8"?>
<!-- Generator: Adobe Illustrator 21.1.0, SVG Export Plug-In . SVG Version: 6.00 Build 0)  -->
<svg version="1.1" id="Laag_1" xmlns="http://www.w3.org/2000/svg" xmlns:xlink="http://www.w3.org/1999/xlink" x="0px" y="0px"
	 viewBox="0 0 226 95" style="enable-background:new 0 0 226 95;" xml:space="preserve">
<style type="text/css">
	.st0{fill:#21335B;}
</style>
<path class="st0" d="M84.2,70.4c1.2-0.7,2.1-1.7,2.6-2.7c0.6-1.4,0.4-3-0.5-4c-0.5-0.6-1.3-1-2.2-1c-0.8,0-1.5,0.2-2,0.7
	c-0.6,0.6-0.9,1.5-0.7,2.4c0.2,0.8,0.7,1.5,1.5,1.7l0.5-1.6c-0.3-0.1-0.3-0.4-0.4-0.5c-0.1-0.3,0-0.6,0.2-0.8
	c0.3-0.2,0.6-0.3,0.8-0.2c0.4,0,0.8,0.2,1,0.5c0.5,0.5,0.6,1.4,0.2,2.2c-0.4,0.9-1.2,1.6-1.9,1.9c-0.5,0.3-1,0.5-1.6,0.7
	c-0.6-2.1-1.9-4.7-5-6.9l-1,1.3c2.6,1.9,3.8,4,4.3,5.8c-1.2,0.1-2.5,0-3.8-0.2c-2.3-0.5-4.4-1.5-6.5-2.5V17.1H58.4
	c1-1.8,2.7-3.3,4.6-4.4c0.4,0.3,0.9,0.5,1.4,0.7c1.7,0.8,3.6,1.3,5.3,1.8l0-0.1v-1.6c-1.6-0.4-3.2-0.9-4.7-1.6c0,0-0.1,0-0.1-0.1
	c3.7-1.2,7.9-0.7,10.5,1.4c2.6,2.1,3.6,5.7,2.2,8.4c-0.3,0.6-0.7,1-1.1,1.3c-0.8,0.5-1.9,0.5-2.6-0.1c-0.4-0.3-0.6-0.8-0.6-1.4
	c0-0.5,0.2-0.9,0.5-1.2c0.4-0.3,0.9-0.4,1.2-0.2c0.2,0.1,0.3,0.3,0.3,0.4c0,0.1,0,0.3-0.1,0.4l1.2,1.2c0.5-0.5,0.7-1.1,0.6-1.8
	c-0.1-0.7-0.5-1.3-1.1-1.7c-1-0.6-2.3-0.4-3.2,0.4c-0.7,0.6-1.1,1.5-1.1,2.4c0,1,0.4,2,1.1,2.6c0.7,0.6,1.6,0.9,2.5,0.9
	c0.7,0,1.5-0.2,2.1-0.6c0.7-0.4,1.2-1.1,1.7-1.9c1.7-3.3,0.6-7.9-2.6-10.4c-3.2-2.5-8-3.1-12.3-1.6c-0.4,0.1-0.7,0.3-1.1,0.4
	c-0.8-0.6-1.6-1.2-2.1-1.9c-0.5-0.6-0.8-1.1-0.9-1.7c-0.2-0.6-0.1-1.2,0.1-1.6c0.2-0.4,0.7-0.8,1.1-0.8c0.4,0,0.8,0.2,0.9,0.5
	c0,0.1,0,0.3-0.1,0.5C62.1,5.9,62,6,61.9,6.1l0.4,1.6c0.6-0.1,1-0.5,1.3-1c0.3-0.6,0.4-1.2,0.2-1.8c-0.3-1.1-1.5-1.8-2.7-1.7
	c-1,0.1-2,0.8-2.4,1.7c-0.4,0.8-0.5,1.8-0.2,2.8c0.2,0.8,0.6,1.5,1.2,2.3c0.5,0.6,1.1,1.2,1.8,1.7c-2.2,1.4-3.9,3.3-5,5.4H31.1
	c-1-2.1-2.8-4.1-5-5.4c0.7-0.5,1.3-1.1,1.8-1.7c0.6-0.8,1-1.5,1.2-2.3c0.3-1,0.2-2-0.2-2.8c-0.5-1-1.4-1.6-2.4-1.7
	c-1.2-0.1-2.3,0.6-2.7,1.7c-0.2,0.6-0.1,1.2,0.2,1.8c0.3,0.5,0.8,0.9,1.3,1l0.4-1.6c-0.1,0-0.2-0.1-0.3-0.2
	c-0.1-0.2-0.1-0.3-0.1-0.5c0.1-0.3,0.5-0.6,0.9-0.5c0.4,0,0.9,0.4,1.1,0.8c0.2,0.4,0.3,1,0.1,1.6c-0.1,0.5-0.4,1.1-0.9,1.7
	c-0.6,0.7-1.3,1.3-2.1,1.9c-0.3-0.2-0.7-0.3-1.1-0.4c-4.3-1.5-9.2-0.9-12.3,1.6c-3.2,2.5-4.4,7.1-2.6,10.4c0.4,0.8,1,1.5,1.7,1.9
	c0.6,0.4,1.4,0.6,2.1,0.6c0.9,0,1.8-0.3,2.5-0.9c0.7-0.6,1.1-1.6,1.1-2.6c0-1-0.4-1.8-1.1-2.4c-0.9-0.8-2.2-0.9-3.2-0.4
	c-0.6,0.3-1,1-1.1,1.7c-0.1,0.7,0.1,1.3,0.6,1.8l1.2-1.2c-0.1-0.2-0.1-0.3-0.1-0.4c0-0.2,0.1-0.4,0.3-0.4c0.3-0.2,0.9-0.1,1.2,0.2
	c0.3,0.3,0.5,0.7,0.5,1.2c0,0.5-0.2,1.1-0.6,1.4c-0.7,0.6-1.8,0.7-2.6,0.1c-0.4-0.3-0.8-0.7-1.1-1.3c-1.4-2.6-0.4-6.3,2.2-8.4
	c2.6-2.1,6.8-2.6,10.5-1.4c0,0-0.1,0-0.1,0.1c-1.5,0.7-3.1,1.2-4.7,1.6v1.6l0,0.1c1.8-0.5,3.6-1,5.3-1.8c0.5-0.2,0.9-0.5,1.4-0.7
	c1.9,1.1,3.6,2.6,4.6,4.4H17.9v50c-2.1,1-4.3,2.1-6.6,2.6C9.9,70,8.7,70,7.5,69.9c0.5-1.8,1.7-3.9,4.3-5.8l-1-1.3
	c-3.1,2.2-4.4,4.8-5,6.9c-0.6-0.2-1.1-0.4-1.6-0.7c-0.6-0.4-1.5-1-1.9-1.9c-0.3-0.8-0.2-1.7,0.2-2.2c0.2-0.3,0.6-0.4,1-0.5
	c0.2,0,0.5,0,0.8,0.2c0.2,0.2,0.3,0.5,0.2,0.8c0,0.1-0.1,0.4-0.4,0.5l0.5,1.6c0.7-0.2,1.3-0.9,1.5-1.7c0.2-0.9-0.1-1.8-0.7-2.4
	c-0.5-0.5-1.2-0.7-2-0.7c-0.8,0-1.6,0.4-2.2,1c-0.9,1-1.1,2.6-0.5,4c0.5,1.1,1.4,2,2.6,2.7c0.7,0.4,1.4,0.7,2.1,0.9
	c-0.2,1.4,0,2.4,0,2.5c0.1,0.4,0.8,4.9,5.4,7.3c1.5,0.8,3,1.1,4.3,1.1c2.6,0,4.4-1.1,4.7-1.2c2.8-1.5,3.9-5,2.5-7.8
	c-0.6-1.1-1.6-2-2.8-2.4c-1.2-0.4-2.5-0.3-3.7,0.3c-2,1-2.7,3.5-1.7,5.4c0.9,1.7,2.9,2.3,4.6,1.4L18,76.5c-0.8,0.4-1.9,0.1-2.3-0.7
	c-0.6-1.2-0.2-2.6,1-3.2c0.8-0.4,1.6-0.5,2.4-0.2c0.8,0.3,1.5,0.8,1.9,1.6c1.1,2,0.3,4.6-1.8,5.6l-0.1,0c0,0-3.5,2.1-7.4,0.1
	c-3.9-2.1-4.5-6-4.5-6.1l0,0c0-0.1-0.1-0.8,0-1.9c0.5,0.1,0.9,0.1,1.4,0.1c1,0,2-0.1,3-0.3c2.4-0.5,4.7-1.6,6.8-2.6l15.9,7.8
	c-0.4-0.1-0.8-0.2-1.2-0.2c-1.5-0.1-3.1,0.4-4.7,1.5c-1.1,0.7-2.1,1.5-3.1,2.2c-0.3,0.2-0.6,0.4-0.8,0.6l1,1.3
	c0.3-0.2,0.6-0.4,0.8-0.6c1-0.7,1.9-1.5,2.9-2.1c1.4-0.9,2.6-1.3,3.7-1.2c1.4,0.1,2.7,1,3.2,2.2c0.5,1.2,0.1,2.8-1,3.6
	c-0.7,0.5-1.7,0.6-2.4,0.2c-0.7-0.4-1-1.3-0.7-1.9c0.2-0.3,0.5-0.6,0.8-0.6h0c0.2,0,0.5,0.2,0.5,0.4l1.7,0c0-1.1-1-2-2.1-2
	c-1,0-1.9,0.6-2.3,1.5c-0.6,1.4,0,3.2,1.4,4c0.5,0.3,1.1,0.4,1.8,0.4c0.8,0,1.7-0.3,2.4-0.8c1.7-1.2,2.3-3.6,1.5-5.5
	c-0.4-0.9-1-1.7-1.8-2.2l7.9,3.8l7.6-3.7c-0.7,0.6-1.3,1.3-1.6,2.1c-0.8,2-0.1,4.3,1.5,5.5c0.7,0.5,1.6,0.8,2.4,0.8
	c0.6,0,1.2-0.1,1.8-0.4c1.4-0.8,2.1-2.6,1.4-4c-0.4-0.9-1.3-1.5-2.3-1.5c0,0,0,0,0,0c-1.1,0-2.1,0.9-2.1,2l1.7,0
	c0-0.2,0.3-0.4,0.5-0.4h0c0.3,0,0.6,0.2,0.8,0.6c0.3,0.6-0.1,1.5-0.7,1.9c-0.7,0.4-1.7,0.3-2.4-0.2c-1-0.7-1.5-2.3-1-3.6
	c0.5-1.2,1.8-2.1,3.2-2.2c1.1-0.1,2.4,0.4,3.7,1.2c1,0.6,2,1.4,2.9,2.1c0.3,0.2,0.6,0.4,0.8,0.6l1-1.3c-0.3-0.2-0.6-0.4-0.8-0.6
	c-1-0.8-2-1.5-3.1-2.2c-1.7-1.1-3.3-1.6-4.7-1.5c-0.3,0-0.7,0.1-1,0.2l15.8-7.7c2.1,1,4.4,2.1,6.8,2.6c1,0.2,2,0.3,3,0.3
	c0.5,0,1,0,1.4-0.1c0.1,1.1,0,1.9,0,1.9l0,0c0,0.2-0.6,4.1-4.5,6.1c-3.9,2-7.3,0-7.4-0.1l-0.1,0c-2-1.1-2.8-3.6-1.8-5.6
	c0.4-0.7,1.1-1.3,1.9-1.6c0.8-0.3,1.7-0.2,2.4,0.2c1.2,0.6,1.6,2,1,3.2c-0.2,0.4-0.6,0.7-1,0.8c-0.4,0.1-0.9,0.1-1.3-0.1L68.8,78
	c0.8,0.4,1.7,0.5,2.6,0.2c0.9-0.3,1.6-0.9,2-1.7c1-2,0.3-4.4-1.7-5.4c-1.1-0.6-2.5-0.7-3.7-0.3c-1.2,0.4-2.2,1.2-2.8,2.4
	c-1.5,2.8-0.4,6.3,2.5,7.8c0.3,0.2,2.2,1.2,4.7,1.2c1.3,0,2.8-0.3,4.3-1.1c4.6-2.4,5.3-6.9,5.4-7.3c0-0.2,0.2-1.2,0-2.5
	C82.8,71,83.5,70.7,84.2,70.4z M68.2,67.4L43.9,79.2L19.5,67.4V18.7h48.6V67.4z M75.3,48.9l-1.2-1.2c-1.9,1.9-3,4.4-3.1,7.1
	c-0.1,2.4,0.9,5.1,2.7,7.3l1.3-1c-1.6-1.9-2.4-4.2-2.3-6.2C72.8,52.6,73.7,50.4,75.3,48.9z M4.5,60.8c0.1,0,0.3,0,0.4,0
	c2.1,0,4.2-1.3,5.1-3.4c0.6-1.3,0.7-2.7,0.4-4.1c-0.5-2-2-3.5-3.5-4.8C6,47.7,5.2,46.9,4.6,46c-1.2-1.8-1.5-4.2-0.8-6.3
	c0.7-1.9,2.1-3.3,4.7-4.4l-0.7-1.5C6,34.6,3.4,36,2.2,39.1c-0.9,2.5-0.6,5.5,0.9,7.7c0.7,1.1,1.7,2,2.6,2.9c1.3,1.3,2.6,2.5,3,4
	c0.3,1,0.1,2-0.3,3c-0.7,1.5-2.3,2.5-3.9,2.4c-1.6-0.1-3-1.5-3-3c0-1.2,0.9-2.3,1.9-2.4c0.5-0.1,1.1,0.1,1.5,0.5
	c0.4,0.4,0.6,0.8,0.6,1.2c0,0.4-0.3,0.8-0.6,0.9c-0.3,0.1-0.7,0-0.8-0.3L2.9,57c0.6,1,1.8,1.4,2.9,0.9c0.9-0.4,1.5-1.3,1.6-2.3
	c0.1-0.9-0.3-1.9-1.1-2.6c-0.8-0.7-1.9-1.1-2.9-1C1.5,52.4,0,54.2,0,56.2C0,58.5,2.1,60.6,4.5,60.8z M72.6,37.7
	c-0.5,1.1-1,2.5-0.9,4c0,1.3,0.5,2.5,1.3,3.3c0.8,0.8,1.9,1.3,3,1.3c0.3,0,0.6,0,0.9-0.1c1.3-0.3,2.4-1.3,2.8-2.6
	c0.3-1.1,0.1-2.3-0.7-3.2c-0.6-0.6-1.4-1-2.3-1c-0.7,0-1.4,0.2-1.8,0.6c-0.6,0.5-0.9,1.2-0.8,2c0.1,0.8,0.7,1.5,1.6,1.6l0.3-1.6
	c-0.1,0-0.2-0.1-0.2-0.2c0-0.2,0.1-0.3,0.2-0.5c0.2-0.1,0.4-0.2,0.7-0.2c0.4,0,0.8,0.2,1.1,0.5c0.4,0.4,0.5,1,0.3,1.6
	c-0.2,0.7-0.8,1.3-1.6,1.4c-0.8,0.2-1.8-0.1-2.3-0.7c-0.5-0.5-0.8-1.3-0.8-2.2c0-1.2,0.4-2.4,0.8-3.3c2.2-5,6.3-9,11-10.7l-0.6-1.6
	C79.4,28,74.9,32.3,72.6,37.7z M13.9,62.1c1.8-2.2,2.8-4.9,2.7-7.3c-0.1-2.6-1.3-5.2-3.1-7.1l-1.2,1.2c1.6,1.6,2.5,3.7,2.6,6
	c0.1,2-0.7,4.3-2.3,6.2L13.9,62.1z M49.5,14.3l4.3-12.1L47,3.9L43.8,0l-3.2,3.9l-6.7-1.6l4.3,12.1H49.5z M40.3,5.5l1,0.2l0.7-0.8
	l1.9-2.3l1.9,2.3l0.7,0.8l1-0.2l3.8-0.9l-2.9,8.1h-8.9l-2.9-8.1L40.3,5.5z M13.5,38.4c0.4,0.9,0.8,2.1,0.8,3.3
	c0,0.9-0.3,1.7-0.8,2.2c-0.6,0.6-1.5,0.9-2.3,0.7c-0.8-0.2-1.4-0.7-1.6-1.4c-0.2-0.6,0-1.2,0.3-1.6c0.3-0.3,0.7-0.5,1.1-0.5
	c0.3,0,0.5,0.1,0.7,0.2c0.1,0.1,0.2,0.3,0.2,0.5c0,0.1-0.1,0.2-0.2,0.2l0.3,1.6c0.8-0.2,1.4-0.8,1.6-1.6c0.1-0.7-0.2-1.5-0.8-2
	c-0.5-0.4-1.1-0.6-1.8-0.6c-0.9,0-1.7,0.4-2.3,1c-0.7,0.8-1,2.1-0.7,3.2c0.4,1.3,1.5,2.3,2.8,2.6c0.3,0.1,0.6,0.1,0.9,0.1
	c1.1,0,2.2-0.5,3-1.3c0.8-0.8,1.3-2,1.3-3.3c0-1.5-0.5-2.9-0.9-4c-2.3-5.4-6.8-9.7-12-11.6l-0.6,1.6C7.2,29.4,11.4,33.4,13.5,38.4z
	 M79.8,33.8l-0.7,1.5c2.5,1.1,4,2.5,4.7,4.4c0.7,2.1,0.5,4.5-0.8,6.3c-0.6,0.9-1.5,1.7-2.4,2.6c-1.5,1.4-3,2.8-3.5,4.8
	c-0.4,1.3-0.2,2.8,0.4,4.1c1,2,3,3.4,5.1,3.4c0.1,0,0.3,0,0.4,0c2.4-0.2,4.5-2.3,4.5-4.6c0-2-1.5-3.8-3.4-4.1c-1-0.1-2.1,0.2-2.9,1
	c-0.8,0.7-1.1,1.6-1.1,2.6c0.1,1,0.7,2,1.6,2.3c1,0.5,2.3,0.1,2.9-0.9l-1.4-0.9c-0.2,0.3-0.5,0.4-0.8,0.3c-0.3-0.1-0.5-0.5-0.6-0.9
	c0-0.4,0.2-0.9,0.6-1.2c0.4-0.4,1-0.6,1.5-0.5c1.1,0.1,2,1.3,1.9,2.4c0,1.5-1.4,2.9-3,3c-1.5,0.1-3.2-0.9-3.9-2.4
	c-0.4-0.9-0.5-2-0.3-3c0.4-1.6,1.7-2.8,3-4c0.9-0.9,1.9-1.8,2.6-2.9c1.5-2.2,1.9-5.2,0.9-7.7C84.2,36,81.6,34.6,79.8,33.8z
	 M58.2,59.8H29.5v1.7h28.7V59.8z M36.5,68.4h2.7v-0.8h-1.8V67H39v-0.8h-1.6v-0.7h1.8v-0.8h-2.7V68.4z M31,64.8h-1.4v3.6H31
	c1.1,0,1.9-0.7,1.9-1.8C32.9,65.6,32.1,64.8,31,64.8z M31,67.6h-0.5v-2H31c0.6,0,1,0.4,1,1C32,67.2,31.5,67.6,31,67.6z M43.8,83.8
	c-3.1,0-5.6,2.5-5.6,5.6c0,3.1,2.5,5.6,5.6,5.6c3.1,0,5.6-2.5,5.6-5.6C49.5,86.3,47,83.8,43.8,83.8z M43,93.3c-1.5-0.3-2.7-1.5-3-3
	h3V93.3z M43,88.6h-3c0.3-1.5,1.5-2.7,3-3V88.6z M44.7,85.6c1.5,0.3,2.7,1.5,3,3h-3V85.6z M44.7,93.3v-3h3
	C47.4,91.7,46.2,92.9,44.7,93.3z M43.7,64.8h-0.9v3.6h2.7v-0.8h-1.8V64.8z M50.9,56.4c4.3,0,7.3-2.9,7.3-7c0-4-3-6.8-7.3-6.8h-4.5
	l0,13.8H50.9z M48.1,44.3h2.8c3.2,0,5.5,2.1,5.5,5.1c0,3.1-2.2,5.3-5.5,5.3h-2.8V44.3z M36.7,45.6l6,10.8l1.4-0.8l-6.3-11.3h6v-1.6
	H29.5v1.6h6l-6.4,11.4l1.4,0.8L36.7,45.6z M36.7,40.4c4,0,7.2-3.2,7.2-7.1c0-3.9-3.2-7.1-7.2-7.1c-4,0-7.2,3.2-7.2,7.1
	C29.5,37.2,32.7,40.4,36.7,40.4z M36.7,27.8c3,0,5.4,2.5,5.4,5.5c0,3-2.4,5.5-5.4,5.5c-3,0-5.4-2.5-5.4-5.5
	C31.3,30.2,33.7,27.8,36.7,27.8z M48.1,29.6l8.5,10.6h1.5V26.3h-1.8V37l-8.6-10.7h-1.4v13.8h1.8V29.6z M49,68.4h0.9v-1.3h1.5v-0.8
	h-1.5v-0.8h1.8v-0.8H49V68.4z M55,65.6h1.1v2.8H57v-2.8h1.1v-0.8H55V65.6z"/>
<path class="st0" d="M107.4,63.8c0.1-0.1,0.3-0.1,0.6-0.1c0.3,0,0.5,0,0.6,0.1c0.1,0.1,0.1,0.1,0.2,0.3l0.1,0.3l1-0.2l-0.1-0.4
	c-0.2-0.8-0.8-1.2-1.8-1.2c-1,0-1.6,0.4-1.8,1.3c0,0.2-0.1,0.7-0.1,1.6c0,1,0,1.6,0.1,1.8c0.1,0.5,0.4,0.8,0.8,1
	c0.3,0.1,0.6,0.2,1,0.2c0.9,0,1.5-0.4,1.8-1.2c0.1-0.2,0.1-0.8,0.1-1.7v-0.5H108v1h0.9c0,0.5,0,0.8-0.1,0.9c0,0.2-0.1,0.3-0.2,0.3
	c-0.1,0.1-0.3,0.1-0.6,0.1c-0.3,0-0.5,0-0.6-0.1c-0.1-0.1-0.1-0.2-0.2-0.3c0-0.1-0.1-0.6-0.1-1.5c0-0.8,0-1.3,0-1.5
	C107.3,64,107.4,63.9,107.4,63.8z M114.7,64c-0.2-0.9-0.8-1.3-1.8-1.3c-1,0-1.6,0.4-1.8,1.3c0,0.2-0.1,0.7-0.1,1.6
	c0,1,0,1.6,0.1,1.8c0.2,0.8,0.8,1.2,1.8,1.2c0.4,0,0.7-0.1,1-0.2c0.4-0.2,0.6-0.5,0.8-1c0.1-0.2,0.1-0.8,0.1-1.8
	C114.8,64.7,114.8,64.1,114.7,64z M113.7,67.1c0,0.2-0.1,0.3-0.2,0.3c-0.1,0.1-0.3,0.1-0.6,0.1c-0.3,0-0.5,0-0.6-0.1
	c-0.1-0.1-0.1-0.2-0.2-0.3c0-0.1-0.1-0.6-0.1-1.5c0-0.8,0-1.3,0-1.5c0-0.2,0.1-0.3,0.1-0.3c0.1-0.1,0.3-0.1,0.6-0.1
	c0.3,0,0.5,0,0.6,0.1c0.1,0.1,0.1,0.2,0.2,0.3c0,0.2,0,0.6,0,1.5C113.8,66.5,113.8,66.9,113.7,67.1z M119.4,64.1
	c-0.2-0.9-0.8-1.3-1.8-1.3H116l0,5.7h1.6c0.9,0,1.5-0.4,1.8-1.2c0.1-0.2,0.1-0.8,0.1-1.7C119.5,64.8,119.4,64.3,119.4,64.1z
	 M118.4,67c0,0.2-0.1,0.3-0.2,0.3c-0.1,0.1-0.3,0.1-0.6,0.1H117l0-3.6h0.6c0.3,0,0.5,0,0.6,0.1c0.1,0.1,0.1,0.2,0.2,0.3
	c0,0.2,0,0.6,0,1.4C118.5,66.4,118.4,66.9,118.4,67z M122.5,64.8c-0.3-0.1-0.5-0.2-0.6-0.3c-0.1-0.1-0.2-0.2-0.2-0.3
	c0-0.1,0-0.2,0.1-0.3c0.1-0.1,0.2-0.1,0.2-0.2c0.1,0,0.2,0,0.2,0c0.2,0,0.4,0.1,0.5,0.2l0.1,0.3l1-0.3l-0.2-0.4
	c-0.1-0.3-0.3-0.5-0.5-0.6c-0.2-0.2-0.5-0.2-0.8-0.2c-0.2,0-0.3,0-0.5,0.1c-0.3,0.1-0.6,0.3-0.8,0.5c-0.2,0.3-0.3,0.6-0.3,1
	c0,0.4,0.2,0.7,0.6,1c0.2,0.1,0.5,0.3,0.8,0.4c0.6,0.2,0.9,0.5,1,0.8c0,0.2,0,0.3-0.1,0.5c-0.1,0.2-0.2,0.4-0.5,0.4
	c-0.1,0-0.2,0-0.3,0c-0.4,0-0.7-0.2-0.8-0.5l-0.1-0.3l-1,0.3l0.1,0.4c0.1,0.3,0.3,0.6,0.6,0.8c0.3,0.3,0.7,0.4,1.1,0.4
	c0.2,0,0.4,0,0.5-0.1c0.5-0.1,0.8-0.4,1.1-0.8c0.2-0.4,0.3-0.8,0.2-1.2C124,65.7,123.4,65.2,122.5,64.8z M127.5,64.8h-1.3v-2h-1v5.7
	h1v-2.7h1.3v2.7h1v-5.7h-1V64.8z M133,62.8h-1l0,0.4c0,2.4,0,3.7,0,3.9c-0.1,0.3-0.3,0.4-0.6,0.4c-0.1,0-0.2,0-0.3-0.1
	c-0.1-0.1-0.2-0.2-0.3-0.3c-0.1-0.3-0.1-1.6,0-3.9l0-0.4h-1l0,0.4c0,2.5,0,3.9,0.1,4.2c0.1,0.3,0.3,0.6,0.6,0.8
	c0.3,0.2,0.6,0.3,1,0.3c0.4,0,0.7-0.1,1-0.3c0.3-0.2,0.5-0.5,0.6-0.8c0.1-0.3,0.1-1.7,0.1-4.2L133,62.8z M134.3,68.4h1v-5.7h-1V68.4
	z M138.7,65.8c0.8-1.3,1.2-2.2,1.2-2.5v-0.5h-3.2v1h2c-0.1,0.3-0.4,0.8-0.9,1.5c-0.8,1.4-1.3,2.3-1.3,2.6v0.5h3.4v-1h-2.2
	C137.9,67.1,138.2,66.6,138.7,65.8z M142.1,65.8h1.7v-1h-1.7v-1h1.9v-1h-2.9v5.7h3.1v-1h-2V65.8z M147.7,65.6
	c-0.1-0.2-0.3-0.4-0.5-0.8c-0.6-0.9-0.9-1.5-1-1.8l0-0.3h-1v5.7h1v-3.2c0.1,0.1,0.1,0.2,0.1,0.2c0.9,1.3,1.3,2.2,1.3,2.7l0,0.3h1
	v-5.7h-1V65.6z M154.4,64.8c-0.3-0.1-0.5-0.2-0.6-0.3c-0.1-0.1-0.2-0.2-0.2-0.3c0-0.1,0-0.2,0.1-0.3c0.1-0.1,0.2-0.1,0.2-0.2
	c0.1,0,0.2,0,0.2,0c0.2,0,0.4,0.1,0.5,0.2l0.1,0.3l1-0.3l-0.2-0.4c-0.1-0.3-0.3-0.5-0.5-0.6c-0.2-0.2-0.5-0.2-0.8-0.2
	c-0.2,0-0.3,0-0.5,0.1c-0.3,0.1-0.6,0.3-0.8,0.5c-0.2,0.3-0.3,0.6-0.3,1c0,0.4,0.2,0.7,0.6,1c0.2,0.1,0.5,0.3,0.8,0.4
	c0.6,0.2,0.9,0.5,1,0.8c0,0.2,0,0.3-0.1,0.5c-0.1,0.2-0.2,0.4-0.5,0.4c-0.1,0-0.2,0-0.3,0c-0.4,0-0.7-0.2-0.8-0.5l-0.1-0.3l-1,0.3
	l0.1,0.4c0.1,0.3,0.3,0.6,0.6,0.8c0.3,0.3,0.7,0.4,1.1,0.4c0.2,0,0.4,0,0.5-0.1c0.5-0.1,0.8-0.4,1.1-0.8c0.2-0.4,0.3-0.8,0.2-1.2
	C155.9,65.7,155.4,65.2,154.4,64.8z M157.1,68.4h1v-5.7h-1V68.4z M161.9,65.6c-0.1-0.2-0.3-0.4-0.5-0.8c-0.6-0.9-0.9-1.5-1-1.8
	l0-0.3h-1v5.7h1v-3.2c0.1,0.1,0.1,0.2,0.1,0.2c0.9,1.3,1.3,2.2,1.3,2.7l0,0.3h1v-5.7h-1V65.6z M167.5,64.1c-0.2-0.9-0.8-1.3-1.8-1.3
	h-1.6l0,5.7h1.6c0.9,0,1.5-0.4,1.8-1.2c0.1-0.2,0.1-0.8,0.1-1.7C167.6,64.8,167.5,64.3,167.5,64.1z M166.5,67c0,0.2-0.1,0.3-0.2,0.3
	c-0.1,0.1-0.3,0.1-0.6,0.1h-0.6l0-3.6h0.6c0.3,0,0.5,0,0.6,0.1c0.1,0.1,0.1,0.2,0.2,0.3c0,0.2,0,0.6,0,1.4
	C166.6,66.4,166.5,66.9,166.5,67z M170.6,64.8c-0.3-0.1-0.5-0.2-0.6-0.3c-0.1-0.1-0.2-0.2-0.2-0.3c0-0.1,0-0.2,0.1-0.3
	c0.1-0.1,0.2-0.1,0.2-0.2c0.1,0,0.2,0,0.2,0c0.2,0,0.4,0.1,0.5,0.2l0.1,0.3l1-0.3l-0.2-0.4c-0.1-0.3-0.3-0.5-0.5-0.6
	c-0.2-0.2-0.5-0.2-0.8-0.2c-0.2,0-0.3,0-0.5,0.1c-0.3,0.1-0.6,0.3-0.8,0.5c-0.2,0.3-0.3,0.6-0.3,1c0,0.4,0.2,0.7,0.6,1
	c0.2,0.1,0.5,0.3,0.8,0.4c0.6,0.2,0.9,0.5,1,0.8c0,0.2,0,0.3-0.1,0.5c-0.1,0.2-0.2,0.4-0.5,0.4c-0.1,0-0.2,0-0.3,0
	c-0.4,0-0.7-0.2-0.8-0.5l-0.1-0.3l-1,0.3l0.1,0.4c0.1,0.3,0.3,0.6,0.6,0.8c0.3,0.3,0.7,0.4,1.1,0.4c0.2,0,0.4,0,0.5-0.1
	c0.5-0.1,0.8-0.4,1.1-0.8c0.2-0.4,0.3-0.8,0.2-1.2C172.1,65.7,171.5,65.2,170.6,64.8z M176.8,63c0,0.1-0.1,0.2-0.4,0.4
	c-0.3,0.3-0.5,0.5-0.6,0.7l-0.1,0.5h1l0.1-0.2c0,0,0,0,0,0v4h1v-5.7h-0.9L176.8,63z M182.2,64.1c0-0.4-0.2-0.7-0.6-1
	c-0.3-0.2-0.6-0.3-1.1-0.3h-1.5v1h1.5c0.1,0,0.2,0,0.3,0c0.2,0.1,0.3,0.2,0.3,0.3c0,0,0,0.1,0,0.2c0,0.2,0,0.4,0,0.4
	c0,0.1-0.1,0.1-0.3,0.2c-0.2,0.1-0.4,0.1-0.7,0.3l-0.5,0.2c-0.2,0.1-0.3,0.2-0.4,0.4c-0.2,0.2-0.2,0.4-0.2,0.7v2.1h3v-1h-2l0-1
	c0,0,0-0.1,0.1-0.1l0.4-0.2c0.3-0.1,0.5-0.2,0.7-0.3c0.5-0.2,0.8-0.4,0.9-0.8c0.1-0.2,0.1-0.5,0.1-0.9
	C182.2,64.1,182.2,64.1,182.2,64.1z M185.5,65c-0.2-0.1-0.3-0.1-0.5-0.2c-0.3-0.1-0.4-0.2-0.5-0.3c-0.1-0.1-0.1-0.2-0.1-0.5v-1.2h-1
	V64c0,0.4,0.1,0.7,0.2,0.9c0.2,0.3,0.5,0.6,1,0.8c0.3,0.1,0.6,0.2,0.9,0.3v2.4h1v-5.7h-1V65z M190,65l-1.2-0.4c0-0.3,0-0.5,0-0.6
	c0-0.1,0.1-0.2,0.1-0.2c0.1,0,0.2-0.1,0.3-0.1h1.2v-1h-1.2c-0.8,0-1.3,0.4-1.4,1.1c-0.1,0.7-0.1,1.9,0,3.5c0,0.4,0.2,0.6,0.5,0.8
	c0.3,0.2,0.6,0.3,1.1,0.3h0l0-0.1v0.1c0.5,0,0.8-0.1,1.1-0.3c0.3-0.2,0.4-0.5,0.5-0.8l0-0.1c0-0.5,0-0.9,0-1.2
	C190.8,65.6,190.5,65.2,190,65z M189.9,67.2L189.9,67.2c0,0.2-0.2,0.3-0.6,0.3c-0.4,0-0.6-0.1-0.6-0.2c0-0.2,0-0.8,0-1.6l0.9,0.3
	c0.1,0,0.2,0.2,0.3,0.4C190,66.5,190,66.8,189.9,67.2z M114.8,29.3c-0.4-2-1.8-3-4.2-3c-2.4,0-3.7,1-4.1,3c-0.1,0.4-0.1,1.6-0.1,3.7
	c0,2.2,0.1,3.6,0.2,4.2c0.5,1.8,1.9,2.7,4.1,2.7c0.9,0,1.7-0.1,2.3-0.4c0.9-0.4,1.5-1.2,1.8-2.3c0.2-0.5,0.2-1.9,0.2-4.2
	C114.9,30.9,114.8,29.7,114.8,29.3z M112.4,36.5c-0.1,0.4-0.2,0.6-0.4,0.7c-0.3,0.2-0.7,0.3-1.4,0.3c-0.7,0-1.2-0.1-1.4-0.3
	c-0.2-0.1-0.3-0.4-0.4-0.7c-0.1-0.3-0.1-1.4-0.1-3.4c0-1.9,0-3,0.1-3.4c0.1-0.4,0.2-0.6,0.3-0.8c0.3-0.2,0.7-0.3,1.4-0.3
	c0.7,0,1.2,0.1,1.5,0.3c0.2,0.1,0.3,0.4,0.4,0.8c0.1,0.4,0.1,1.5,0.1,3.4C112.6,35,112.5,36.2,112.4,36.5z M124.5,27.3l0-0.8h-2.4
	l0,0.9c0.1,5.5,0.1,8.5-0.1,9.1c-0.2,0.7-0.7,1-1.4,1c-0.3,0-0.5-0.1-0.8-0.2c-0.3-0.2-0.5-0.4-0.6-0.8c-0.1-0.6-0.2-3.7-0.1-9.1
	l0-0.9h-2.3l0,0.8c-0.1,5.8,0,9.1,0.2,9.8c0.2,0.8,0.7,1.5,1.4,2c0.7,0.5,1.5,0.7,2.3,0.7c0.9,0,1.6-0.2,2.3-0.7
	c0.7-0.5,1.1-1.1,1.4-2C124.5,36.4,124.6,33.2,124.5,27.3z M134.6,33c0-1.9-0.1-3.1-0.1-3.5c-0.4-2-1.8-3-4.2-3h-3.7l0,13.1h3.7
	c2.2,0,3.6-0.9,4.1-2.7C134.5,36.4,134.6,35.1,134.6,33z M132.1,36.3c-0.1,0.4-0.2,0.6-0.4,0.7c-0.3,0.2-0.7,0.3-1.4,0.3h-1.4l0-8.5
	h1.4c0.7,0,1.2,0.1,1.5,0.3c0.2,0.1,0.3,0.4,0.4,0.8c0.1,0.4,0.1,1.4,0.1,3.2C132.2,34.9,132.2,36,132.1,36.3z M142.8,28.9v-2.3
	h-6.7v13.2h7.1v-2.3h-4.8v-3.9h4v-2.3h-4v-2.3H142.8z M156.1,28.9v-2.3h-6.7v13.2h7.1v-2.3h-4.8v-3.9h4v-2.3h-4v-2.3H156.1z
	 M158,39.7h2.4v-7.5c0.1,0.2,0.2,0.4,0.3,0.5c2,3,3,5.1,3.1,6.2l0.1,0.8h2.3V26.5h-2.4v6.6c-0.3-0.4-0.6-1-1.1-1.8
	c-1.4-2.2-2.2-3.5-2.3-4.1l-0.1-0.7H158V39.7z M175,39.7v-7.5c0.1,0.2,0.2,0.4,0.3,0.5c2,3,3,5.1,3.1,6.2l0.1,0.8h2.3V26.5h-2.4v6.6
	c-0.3-0.4-0.6-1-1.1-1.8c-1.4-2.2-2.2-3.5-2.3-4.1l-0.1-0.7h-2.3v13.1H175z M185,26.5h-2.4v13.1h2.4V26.5z M193.7,28.9v-2.3h-6.7
	v13.2h7.1v-2.3h-4.8v-3.9h4v-2.3h-4v-2.3H193.7z M198,26.5h-2.3l0,0.8c-0.1,5.8,0,9.1,0.2,9.8c0.2,0.8,0.7,1.5,1.4,2
	c0.7,0.5,1.5,0.7,2.3,0.7c0.9,0,1.6-0.2,2.3-0.7c0.7-0.5,1.1-1.1,1.4-2c0.2-0.7,0.3-4,0.2-9.8l0-0.8H201l0,0.9
	c0.1,5.5,0.1,8.5-0.1,9.1c-0.2,0.7-0.7,1-1.4,1c-0.3,0-0.5-0.1-0.8-0.2c-0.3-0.2-0.5-0.4-0.6-0.8c-0.1-0.6-0.2-3.7-0.1-9.1L198,26.5
	z M215.1,27.3c-0.1,1.5-0.6,4.2-1.7,8.1c-0.7-1.8-1.1-3.2-1.2-4.1l0-0.8h-2.3l-0.1,0.8c-0.1,0.9-0.4,2.2-1.1,4c-1-3.8-1.6-6.5-1.6-8
	l0-0.8h-2.4l0,0.9c0.1,2.2,0.9,6.1,2.6,11.6l0.2,0.7h1.9l0.2-0.5c0.5-1.1,1-2.2,1.4-3.3c0.4,1.1,0.9,2.2,1.4,3.4l0.3,0.5h1.9
	l0.2-0.7c1.7-5.5,2.6-9.4,2.7-11.6l0-0.9h-2.3L215.1,27.3z M221.2,37.3v-3.9h4v-2.3h-4v-2.3h4.4v-2.3h-6.7v13.2h7.1v-2.3H221.2z
	 M165.5,55.5h-4.8v-3.9h4v-2.3h-4V47h4.4v-2.3h-6.7v13.2h7.1V55.5z M127.1,52.8c0.4-0.1,0.8-0.2,1.1-0.3c1.2,2,1.8,3.5,1.9,4.5
	l0.1,0.8h2.3l-0.1-0.9c-0.1-1.3-0.8-3-2-5.2c0.8-0.4,1.3-1,1.5-1.7c0.1-0.4,0.2-1,0.2-1.8c0-0.2,0-0.4,0-0.5c0-0.9-0.4-1.7-1.2-2.3
	c-0.7-0.5-1.6-0.8-2.6-0.8h-3.6v13.2h2.4V52.8z M127.1,47h1.2c0.3,0,0.6,0.1,0.9,0.2c0.3,0.1,0.5,0.3,0.5,0.5c0,0.1,0,0.3,0,0.6
	c0,0.5,0,0.9-0.1,1c-0.1,0.2-0.3,0.3-0.6,0.4c-0.5,0.2-1.2,0.4-2,0.6V47z M116.3,57.8h7.1v-2.3h-4.8v-3.9h4v-2.3h-4V47h4.4v-2.3
	h-6.7V57.8z M112.3,57.8h2.3l-0.1-0.9c-0.1-1.4-0.9-3.4-2.5-6c1.2-0.8,1.7-1.9,1.7-3.4v-2.8h-2.4v2.8c0,0.5-0.1,0.8-0.2,1
	c-0.2,0.3-0.6,0.6-1.2,0.8c-0.4,0.1-0.9,0.3-1.4,0.5v-5.1h-2.4v13.1h2.4v-5.5c0.4-0.2,0.8-0.3,1.2-0.5c1.5,2.4,2.2,4.1,2.3,5.2
	L112.3,57.8z M175.7,57.8h2.4v-6.2h4v-2.3h-4V47h4.4v-2.3h-6.7V57.8z M183.5,47h2.5v10.8h2.4V47h2.5v-2.3h-7.4V47z M169.5,44.7h-2.4
	v13.2h7.1v-2.3h-4.8V44.7z M139.8,57.1l0.1,0.8h2.3l-0.1-0.9c-0.1-1.4-0.9-3.4-2.5-6c1.2-0.8,1.7-1.9,1.7-3.4v-2.8H139v2.8
	c0,0.5-0.1,0.8-0.2,1c-0.2,0.3-0.6,0.6-1.2,0.8c-0.4,0.1-0.9,0.3-1.4,0.5v-5.1h-2.4v13.1h2.4v-5.5c0.4-0.2,0.8-0.3,1.2-0.5
	C138.9,54.2,139.7,56,139.8,57.1z M156.5,47.7c-0.4-2-1.8-3-4.2-3h-3.7l0,13.1h3.7c2.2,0,3.6-0.9,4.1-2.7c0.2-0.5,0.2-1.8,0.2-3.9
	C156.6,49.3,156.6,48.1,156.5,47.7z M154.2,54.5c-0.1,0.4-0.2,0.6-0.4,0.7c-0.3,0.2-0.7,0.3-1.4,0.3H151l0-8.5h1.4
	c0.7,0,1.2,0.1,1.5,0.3c0.2,0.1,0.3,0.4,0.4,0.8c0.1,0.4,0.1,1.4,0.1,3.2C154.3,53.1,154.3,54.2,154.2,54.5z"/>
</svg>
